<?xml version="1.0" encoding="utf-8" ?><svg xmlns="http://www.w3.org/2000/svg" xmlns:xlink="http://www.w3.org/1999/xlink" width="1024" height="1024" viewBox="0 0 1024 1024"><path fill="white" d="M0 0L1024 0L1024 1024L0 1024L0 0Z"/><path fill="#8B2351" d="M512.802 294.322C544.408 313.482 578.458 332.902 610.527 351.343L640.818 368.765C644.486 370.893 652.868 375.535 655.994 377.974L655.994 480.596C655.993 498.259 656.385 517.774 655.893 535.296C656.017 536.728 656.034 536.224 655.697 537.631C653.547 540.114 615.134 561.138 609.131 564.567L549.857 598.523C538.17 605.234 525.988 612.487 514.134 618.813C513.755 606.467 513.964 593.28 513.962 580.886L513.963 502.917C513.964 488.978 514.217 474.081 513.852 460.205C496.949 450.794 480.149 440.63 463.342 431.049C460.177 429.246 443.55 419.114 441.132 418.46C434.329 413.782 424.265 408.26 416.881 404.049L389 387.936C383.563 384.822 373.467 379.799 369.154 375.819C383.895 367.845 398.836 359.057 413.464 350.777L512.802 294.322Z"/><path fill="#5C0C3E" d="M513.852 460.205C515.605 457.897 544.177 442.482 548.246 440.196L618.728 399.996C628.739 394.306 646.489 385.2 655.535 379.057C655.971 393.102 655.631 408.398 655.58 422.526L655.421 507.019C655.453 512.642 654.722 531.486 655.893 535.296C656.017 536.728 656.034 536.224 655.697 537.631C653.547 540.114 615.134 561.138 609.131 564.567L549.857 598.523C538.17 605.234 525.988 612.487 514.134 618.813C513.755 606.467 513.964 593.28 513.962 580.886L513.963 502.917C513.964 488.978 514.217 474.081 513.852 460.205Z"/><path fill="#360429" d="M566.337 468.533L566.47 468.632L566.522 469.153C558.909 474.116 550.063 477.71 542.995 483.047C542.024 483.804 541.641 485.884 541.634 487.064C541.54 501.966 542.028 517.168 542 532.075C545.256 534.297 559.871 543.241 562.949 544.534L563.494 544.181C562.542 541.73 563.068 536.482 562.887 533.526C561.818 516.142 564.529 497.699 561.691 480.579C560.716 474.699 561.477 474.078 566.262 471.193L566.292 471.662C561.116 476.386 562.952 477.009 563.35 482.982C564.65 502.477 561.879 524.162 563.904 543.428L563.988 544.199C579.07 534.957 599.644 523.576 615.189 514.972C620.653 518.193 624.963 521.79 630.846 524.546C619.598 534.003 596.576 545.297 583.155 553.074C571.991 559.544 554.892 570.566 543.701 575.752C536.877 570.803 535.143 569.758 527.295 566.768C535.779 562.209 558.06 551.394 563.863 545.954C557.47 541.955 546.629 536.837 541.264 532.03C541.067 515.804 540.987 499.576 541.024 483.349C544.465 480.323 561.16 471.509 566.337 468.533Z"/><path d="M512.544 331.885C540.575 348.273 568.701 364.499 596.92 380.562L591.75 383.511C588.605 385.342 585.693 387.014 582.463 388.684C578.276 386.67 573.174 383.512 569.087 381.095C550.323 370.001 531.048 359.356 512.533 347.867C512.479 342.54 512.482 337.213 512.544 331.885Z"/><path d="M512.923 383.679C525.233 390.247 538.094 398.236 550.524 405.116L545.519 407.936C542.506 409.707 539.479 411.454 536.437 413.177C528.847 408.932 520.338 403.583 512.769 399.068C512.519 393.799 512.701 388.922 512.923 383.679Z"/><path d="M512.558 407.329C518.367 410.757 524.15 414.274 530.147 417.358L523.212 421.37C519.498 423.575 516.329 425.373 512.49 427.34C512.703 420.981 512.556 413.737 512.558 407.329Z"/><path d="M512.784 357.897C518.169 361.134 523.595 364.364 529.192 367.215C527.144 368.149 524.744 369.546 522.733 370.644C519.18 372.665 516.302 374.196 512.62 375.959C512.544 369.798 512.434 364.053 512.784 357.897Z"/><path fill="#5C0C3E" d="M369.154 375.819C373.467 379.799 383.563 384.822 389 387.936L416.881 404.049C424.265 408.26 434.329 413.782 441.132 418.46L441.174 521.432C441.191 538.599 441.923 562.655 440.872 579.382C435.626 577.313 420.49 568.177 415.162 565.116C399.308 556.079 383.5 546.962 367.738 537.765L367.763 430.432L367.73 397.171C367.723 391.242 367.664 385.168 367.816 379.236C367.869 377.14 368.013 376.98 369.154 375.819Z"/><path d="M459.838 546.953C461.7 547.694 467.875 551.507 469.878 552.687C477.099 556.995 484.363 561.228 491.67 565.387C491.647 569.307 491.805 573.494 491.882 577.435C483.236 573.26 468.444 563.994 459.642 558.863C459.61 554.733 459.577 551.067 459.838 546.953Z"/><path d="M459.783 497.4C462.655 498.639 468.379 502.194 471.262 503.891C478.047 507.958 484.899 511.909 491.817 515.745C491.768 519.756 491.919 523.949 492.007 527.974C481.303 522.264 470.701 515.129 459.703 509.423C459.633 505.37 459.51 501.451 459.783 497.4Z"/><path d="M459.865 521.354C467.965 525.339 483.047 534.87 491.802 539.804L491.943 551.785C483.898 547.962 468.007 538.155 459.681 533.37C459.613 529.266 459.481 525.455 459.865 521.354Z"/><path d="M459.831 474.007C467.442 477.236 483.196 487.53 491.712 492.113C491.605 496.209 491.863 500.201 492.075 504.287C482.304 499.269 469.359 491.208 459.608 485.511C459.58 481.477 459.583 478.025 459.831 474.007Z"/><path d="M459.858 449.782C468.996 454.451 482.311 462.738 491.602 468.054L491.985 480.09C481.029 474.362 470.619 467.604 459.651 461.808C459.629 457.645 459.655 453.935 459.858 449.782Z"/></svg>